<?xml version="1.0" encoding="UTF-8"?>
<svg version="1.1" xmlns="http://www.w3.org/2000/svg" width="700" height="356">
<path d="M0 0 C1.00915466 -0.01260864 2.01830933 -0.02521729 3.05804443 -0.03820801 C4.69075287 -0.02606262 4.69075287 -0.02606262 6.35644531 -0.01367188 C7.48922913 -0.01749878 8.62201294 -0.02132568 9.78912354 -0.02526855 C12.19324631 -0.02799231 14.59739848 -0.02059893 17.00146484 -0.00390625 C20.62960676 0.01725751 24.25571377 -0.00356935 27.88378906 -0.02929688 C61.30230844 -0.0688875 61.30230844 -0.0688875 74.07910156 11.45117188 C80.1639488 17.60180124 82.76093292 23.73229583 83.02050781 32.38085938 C82.53590936 41.60098257 78.99597795 47.78268075 72.93457031 54.51757812 C73.54945313 54.9790625 74.16433594 55.44054687 74.79785156 55.91601562 C80.89288124 60.83481151 83.89663838 64.69996318 84.93457031 72.51757812 C85.75965932 81.02234175 85.34804853 89.02149012 80.93457031 96.51757812 C72.22961023 106.85868946 61.89964559 109.89377127 48.93457031 111.51757812 C44.80731418 111.77090972 40.69763634 111.79899548 36.56347656 111.78320312 C34.87544167 111.7860733 34.87544167 111.7860733 33.15330505 111.78900146 C30.79792047 111.79035166 28.44252814 111.78673755 26.0871582 111.77832031 C22.48209085 111.7675333 18.87751378 111.77829162 15.27246094 111.79101562 C12.97363172 111.7896952 10.6748028 111.78713524 8.37597656 111.78320312 C7.30199112 111.78725159 6.22800568 111.79130005 5.12147522 111.79547119 C4.11950607 111.78916687 3.11753693 111.78286255 2.08520508 111.77636719 C1.20872818 111.774776 0.33225128 111.77318481 -0.57078552 111.77154541 C-3.39696436 111.48382623 -5.52343552 110.77556566 -8.06542969 109.51757812 C-9.20997892 107.22847965 -9.19814848 105.93860459 -9.21260071 103.39370728 C-9.21975601 102.53008072 -9.22691132 101.66645416 -9.23428345 100.7766571 C-9.23697235 99.82700577 -9.23966125 98.87735443 -9.24243164 97.89892578 C-9.24900284 96.90044113 -9.25557404 95.90195648 -9.26234436 94.87321472 C-9.28210289 91.55935599 -9.29374456 88.24554259 -9.30371094 84.93164062 C-9.30778646 83.80211346 -9.31186199 82.67258629 -9.31606102 81.50883102 C-9.33693088 75.5325819 -9.35122966 69.55635582 -9.3605957 63.58007812 C-9.37167281 57.39691569 -9.40608539 51.21411188 -9.4457674 45.03107643 C-9.47186648 40.2853629 -9.48028149 35.53973575 -9.48387718 30.79395676 C-9.48875911 28.51412911 -9.5004184 26.23430572 -9.51891518 23.95454788 C-9.54316757 20.76774604 -9.54236704 17.58188469 -9.53540039 14.39501953 C-9.54821045 13.44941666 -9.56102051 12.50381378 -9.57421875 11.52955627 C-9.52373138 5.20926259 -9.52373138 5.20926259 -7.35264587 1.93258667 C-4.66579074 0.2703376 -3.1467144 0.01132298 0 0 Z M19.93457031 27.51757812 C19.83563254 29.29203822 19.80657939 31.07044064 19.80517578 32.84765625 C19.80202362 33.98553589 19.79887146 35.12341553 19.79562378 36.29577637 C19.79764801 37.53428345 19.79967224 38.77279053 19.80175781 40.04882812 C19.80080109 41.31021606 19.79984436 42.571604 19.79885864 43.87121582 C19.79817656 46.5445495 19.79953502 49.21779249 19.80419922 51.89111328 C19.80989651 55.32464503 19.80661731 58.75809862 19.80062675 62.1916275 C19.79615269 65.45653055 19.79928148 68.72142406 19.80175781 71.98632812 C19.79973358 73.22483521 19.79770935 74.46334229 19.79562378 75.73937988 C19.79877594 76.87725952 19.8019281 78.01513916 19.80517578 79.1875 C19.80597137 80.19486206 19.80676697 81.20222412 19.80758667 82.2401123 C19.67887308 84.48409606 19.67887308 84.48409606 20.93457031 85.51757812 C25.15740395 85.77263711 29.39245738 85.70281509 33.62207031 85.70507812 C35.40000977 85.72344727 35.40000977 85.72344727 37.21386719 85.7421875 C38.36306641 85.74412109 39.51226562 85.74605469 40.69628906 85.74804688 C41.74776123 85.75215576 42.7992334 85.75626465 43.88256836 85.76049805 C48.2520049 85.41271872 51.73100958 84.3727397 55.30957031 81.83007812 C57.61674935 78.54678488 57.49497457 76.44040791 56.93457031 72.51757812 C55.06748527 70.15260373 53.613956 68.85727097 50.93457031 67.51757812 C47.88618364 67.24124955 44.83802162 67.07099515 41.78222656 66.89648438 C38.93457031 66.51757812 38.93457031 66.51757812 35.93457031 64.51757812 C35.578125 62.66992188 35.578125 62.66992188 35.60644531 60.45507812 C35.61160156 59.6584375 35.61675781 58.86179688 35.62207031 58.04101562 C35.64269531 57.20828125 35.66332031 56.37554687 35.68457031 55.51757812 C35.68972656 54.68484375 35.69488281 53.85210937 35.70019531 52.99414062 C35.78003335 46.82665205 35.78003335 46.82665205 36.93457031 44.51757812 C39.00732234 44.17504707 41.0945545 43.91829723 43.18457031 43.70507812 C47.41712658 43.10109095 49.63755694 42.71371903 53.24707031 40.33007812 C55.39488678 36.75038401 55.54304933 34.62481151 54.93457031 30.51757812 C53.93457031 28.51757812 53.93457031 28.51757812 51.93457031 27.51757812 C47.88961871 26.68819551 44.0382107 26.38937215 39.91503906 26.38476562 C38.25891602 26.38283203 38.25891602 26.38283203 36.56933594 26.38085938 C35.43173828 26.38472656 34.29414063 26.38859375 33.12207031 26.39257812 C31.96513672 26.38871094 30.80820312 26.38484375 29.61621094 26.38085938 C28.51857422 26.38214844 27.4209375 26.3834375 26.29003906 26.38476562 C25.28610107 26.38589355 24.28216309 26.38702148 23.24780273 26.38818359 C20.97227915 26.25769873 20.97227915 26.25769873 19.93457031 27.51757812 Z " fill="#18191B" transform="translate(329.0654296875,139.482421875)"/>
<path d="M0 0 C0.79470703 -0.03738281 1.58941406 -0.07476562 2.40820312 -0.11328125 C6.7229669 -0.17752091 8.79149116 0.13161957 12.5625 2.44921875 C15.40386867 5.61616092 16.97647478 8.61014611 18.375 12.5625 C18.84292969 13.79355469 19.31085938 15.02460938 19.79296875 16.29296875 C20.83974398 19.25344877 21.7451841 22.23877834 22.62109375 25.25390625 C24.12545119 30.35084608 26.03516605 35.2167688 28.0625 40.125 C30.79380784 46.84536533 33.38511558 53.58127629 35.78125 60.4296875 C37.65153907 65.73167365 39.64721206 70.9874244 41.625 76.25 C42.01284668 77.28519775 42.40069336 78.32039551 42.80029297 79.38696289 C44.54392147 84.03431601 46.29773096 88.67643051 48.1015625 93.30078125 C48.38330322 94.02990723 48.66504395 94.7590332 48.95532227 95.51025391 C49.69457609 97.4193684 50.44263771 99.32506589 51.19140625 101.23046875 C52.13710592 104.2159128 52.66513677 106.28408616 52.1875 109.375 C49.09984277 111.43343815 48.41144048 111.63008393 44.9140625 111.640625 C44.0890625 111.64320313 43.2640625 111.64578125 42.4140625 111.6484375 C41.55554688 111.64070313 40.69703125 111.63296875 39.8125 111.625 C38.53632813 111.63660156 38.53632813 111.63660156 37.234375 111.6484375 C28.95283621 111.62263831 28.95283621 111.62263831 25.1875 109.375 C23.89453125 107.67578125 23.89453125 107.67578125 23 105.6875 C22.68160156 104.98238281 22.36320312 104.27726562 22.03515625 103.55078125 C20.85736902 100.52761312 19.97437546 97.52250183 19.1875 94.375 C11.00103269 93.22363638 2.87240646 93.26085017 -5.375 93.3125 C-6.77929527 93.31752634 -8.1835923 93.32208724 -9.58789062 93.32617188 C-12.99613903 93.33788407 -16.4042964 93.35428628 -19.8125 93.375 C-19.92787109 93.97248047 -20.04324219 94.56996094 -20.16210938 95.18554688 C-21.04276507 99.47743804 -21.83355205 103.18680915 -24.3125 106.875 C-24.7353125 107.5246875 -25.158125 108.174375 -25.59375 108.84375 C-26.8125 110.375 -26.8125 110.375 -28.8125 111.375 C-30.38312514 111.47072577 -31.9577118 111.5057405 -33.53125 111.5078125 C-34.46324219 111.50910156 -35.39523438 111.51039063 -36.35546875 111.51171875 C-37.81919922 111.50591797 -37.81919922 111.50591797 -39.3125 111.5 C-40.77623047 111.50580078 -40.77623047 111.50580078 -42.26953125 111.51171875 C-43.66751953 111.50978516 -43.66751953 111.50978516 -45.09375 111.5078125 C-45.95033203 111.50668457 -46.80691406 111.50555664 -47.68945312 111.50439453 C-49.8125 111.375 -49.8125 111.375 -51.8125 110.375 C-53.47724537 105.95222601 -51.75973617 102.36945399 -50.25 98.125 C-49.83282715 96.9174707 -49.83282715 96.9174707 -49.40722656 95.68554688 C-45.99793741 85.89298979 -42.29529403 76.21557129 -38.5625 66.54296875 C-37.72908439 64.38284424 -36.89575382 62.22268692 -36.0625 60.0625 C-35.638479 58.96397705 -35.21445801 57.8654541 -34.77758789 56.73364258 C-31.20430548 47.45113064 -27.73164831 38.13325526 -24.29980469 28.79760742 C-23.53188735 26.71065826 -22.76063052 24.62493451 -21.98583984 22.54052734 C-21.1630694 20.32079334 -20.35187439 18.09675058 -19.54931641 15.86962891 C-19.1269873 14.72284668 -18.7046582 13.57606445 -18.26953125 12.39453125 C-17.89417236 11.36046143 -17.51881348 10.3263916 -17.13208008 9.26098633 C-15.71011946 6.15108875 -14.13908891 3.87585268 -11.8125 1.375 C-7.83584343 0.04944781 -4.16580334 0.07325953 0 0 Z M-0.8125 38.375 C-2.32602695 42.26571246 -3.82091565 46.1633283 -5.3125 50.0625 C-5.95638672 51.71668945 -5.95638672 51.71668945 -6.61328125 53.40429688 C-7.22236328 55.0043457 -7.22236328 55.0043457 -7.84375 56.63671875 C-8.40932617 58.10564575 -8.40932617 58.10564575 -8.98632812 59.60424805 C-10.05061992 62.69170471 -10.05061992 62.69170471 -9.8125 67.375 C-3.5425 67.375 2.7275 67.375 9.1875 67.375 C10.50409869 65.31145004 10.50409869 65.31145004 9.38305664 62.66943359 C8.74678345 60.98841553 8.74678345 60.98841553 8.09765625 59.2734375 C7.64326172 58.06171875 7.18886719 56.85 6.72070312 55.6015625 C6.23063235 54.31764588 5.74039581 53.03379251 5.25 51.75 C4.7629739 50.45859635 4.27663684 49.1669326 3.79101562 47.875 C2.59661626 44.70570268 1.39517198 41.53925846 0.1875 38.375 C-0.1425 38.375 -0.4725 38.375 -0.8125 38.375 Z " fill="#18191B" transform="translate(256.8125,139.625)"/>
<path d="M0 0 C3.16079572 2.71760249 5.6313832 5.57800336 8 9 C8.45117188 9.64839844 8.90234375 10.29679687 9.3671875 10.96484375 C12.46461814 16.18775266 13.11371577 22.0401156 12 28 C7.95301203 30.69799198 4.87298435 30.33137116 0.125 30.3125 C-1.07962891 30.33666992 -1.07962891 30.33666992 -2.30859375 30.36132812 C-7.01904715 30.36520823 -10.20396977 30.09332998 -14 27 C-14.61875 26.01 -15.2375 25.02 -15.875 24 C-18.43594655 20.38454605 -20.76618316 18.93565013 -25 18 C-31.6278855 17.29719034 -37.25411697 17.48211243 -43 21 C-49.15184608 28.44697157 -48.21634255 36.80149984 -48.24023438 45.98193359 C-48.24991054 48.22922198 -48.28095521 50.47558317 -48.3125 52.72265625 C-48.60142081 65.49930408 -48.60142081 65.49930408 -42.75 76.4375 C-36.46816815 80.00672264 -30.93773715 80.57794398 -24 79 C-19.78054882 77.16545601 -18.0056237 75.10675329 -16 71 C-15.731875 69.948125 -15.46375 68.89625 -15.1875 67.8125 C-14 65 -14 65 -11.43359375 63.83984375 C-7.53307168 62.88579114 -3.86245138 62.70561279 0.125 62.75 C0.82753906 62.74226563 1.53007812 62.73453125 2.25390625 62.7265625 C9.14811281 62.75262755 9.14811281 62.75262755 12 65 C14.13176566 70.40513261 12.89503762 76.27615178 11.0703125 81.5859375 C6.74113985 91.3502758 -1.82908425 98.57628295 -11.375 103 C-23.36525654 107.56771678 -38.59343454 107.85873041 -50.5234375 102.96484375 C-53.08386416 101.73977807 -55.54013094 100.4156957 -58 99 C-58.82113281 98.53335938 -59.64226562 98.06671875 -60.48828125 97.5859375 C-65.69148894 94.40099531 -68.56850701 91.56743722 -71 86 C-71.35835938 85.28585938 -71.71671875 84.57171875 -72.0859375 83.8359375 C-75.95158537 75.85789829 -76.16006744 67.96404036 -76.203125 59.234375 C-76.20882507 58.31972473 -76.21452515 57.40507446 -76.22039795 56.46270752 C-76.22979483 54.5365106 -76.23636064 52.61029798 -76.24023438 50.68408203 C-76.24992621 47.7721688 -76.28099504 44.8609665 -76.3125 41.94921875 C-76.38975602 28.5523656 -76.34241623 15.60435481 -67 5 C-62.67361305 1.01170986 -58.26992197 -1.67447422 -53 -4.25 C-52.31421875 -4.600625 -51.6284375 -4.95125 -50.921875 -5.3125 C-34.53585338 -13.44296874 -14.92224017 -9.24510993 0 0 Z " fill="#18191B" transform="translate(183,147)"/>
<path d="M0 0 C0.95116196 -0.00315216 1.90232391 -0.00630432 2.88230896 -0.009552 C3.91251663 -0.00752777 4.9427243 -0.00550354 6.00415039 -0.00341797 C7.05961563 -0.00437469 8.11508087 -0.00533142 9.20252991 -0.00631714 C11.43775492 -0.00699854 13.6729819 -0.00514705 15.90820312 -0.00097656 C19.33411094 0.00436693 22.75988733 -0.0009202 26.18579102 -0.00732422 C28.3544111 -0.00666333 30.5230311 -0.00538193 32.69165039 -0.00341797 C33.71983383 -0.0054422 34.74801727 -0.00746643 35.80735779 -0.009552 C36.76167191 -0.00639984 37.71598602 -0.00324768 38.69921875 0 C39.53923935 0.00079559 40.37925995 0.00159119 41.24473572 0.00241089 C43.41430664 0.12939453 43.41430664 0.12939453 46.41430664 1.12939453 C49.193324 4.78501468 48.78185428 9.23995224 48.78930664 13.62939453 C48.81379883 14.38865234 48.83829102 15.14791016 48.86352539 15.93017578 C48.88108876 19.27307047 48.64305871 21.71534051 47.01586914 24.66064453 C44.41430664 26.12939453 44.41430664 26.12939453 34.41430664 26.12939453 C34.74430664 45.26939453 35.07430664 64.40939453 35.41430664 84.12939453 C39.04430664 84.78939453 42.67430664 85.44939453 46.41430664 86.12939453 C49.70502348 89.42011137 48.7830682 93.59704958 48.78930664 98.06689453 C48.82604492 99.44651367 48.82604492 99.44651367 48.86352539 100.85400391 C48.86932617 102.17948242 48.86932617 102.17948242 48.87524414 103.53173828 C48.88346191 104.34118896 48.89167969 105.15063965 48.90014648 105.98461914 C48.41430664 108.12939453 48.41430664 108.12939453 46.69621277 109.73918152 C44.0235468 111.3674584 42.5261142 111.50905423 39.41796875 111.51757812 C38.42691635 111.52703461 37.43586395 111.53649109 36.41477966 111.54623413 C35.351147 111.54016144 34.28751434 111.53408875 33.19165039 111.52783203 C32.09462296 111.53070221 30.99759552 111.53357239 29.86732483 111.53652954 C27.54989098 111.53856989 25.23243991 111.53304212 22.91503906 111.52050781 C19.36167053 111.50443914 15.80943687 111.52036618 12.25610352 111.53955078 C10.00544996 111.53756865 7.75479711 111.53372559 5.50415039 111.52783203 C4.4384935 111.53390472 3.37283661 111.53997742 2.27488708 111.54623413 C0.79303673 111.53204941 0.79303673 111.53204941 -0.71875 111.51757812 C-1.58826797 111.51519135 -2.45778595 111.51280457 -3.35365295 111.51034546 C-6.05891319 111.04862828 -6.94665706 110.2937209 -8.58569336 108.12939453 C-8.95800781 105.98461914 -8.95800781 105.98461914 -8.94897461 103.53173828 C-8.94833008 102.64808594 -8.94768555 101.76443359 -8.94702148 100.85400391 C-8.9309082 99.93425781 -8.91479492 99.01451172 -8.89819336 98.06689453 C-8.90141602 97.14328125 -8.90463867 96.21966797 -8.90795898 95.26806641 C-8.85274509 88.39644626 -8.85274509 88.39644626 -6.58569336 86.12939453 C-1.14069336 85.63439453 -1.14069336 85.63439453 4.41430664 85.12939453 C4.74430664 65.65939453 5.07430664 46.18939453 5.41430664 26.12939453 C1.78430664 26.12939453 -1.84569336 26.12939453 -5.58569336 26.12939453 C-7.58569336 25.12939453 -7.58569336 25.12939453 -8.58569336 22.12939453 C-8.70824504 19.30500583 -8.77082205 16.51612691 -8.77319336 13.69189453 C-8.78543945 12.928125 -8.79768555 12.16435547 -8.81030273 11.37744141 C-8.82902429 4.20708714 -8.82902429 4.20708714 -6.58569336 1.12939453 C-4.18290669 -0.07199881 -2.68262599 0.00254315 0 0 Z " fill="#18191B" transform="translate(437.585693359375,139.87060546875)"/>
<path d="M0 0 C0.96795502 -0.01283524 1.93591003 -0.02567047 2.93319702 -0.03889465 C3.98214142 -0.04628159 5.03108582 -0.05366852 6.11181641 -0.0612793 C7.18710602 -0.06935104 8.26239563 -0.07742279 9.37026978 -0.08573914 C11.64836003 -0.09958548 13.92647107 -0.11030516 16.20458984 -0.11816406 C19.69229267 -0.13539388 23.17905195 -0.17927802 26.66650391 -0.22338867 C28.87743442 -0.23351383 31.08837301 -0.24203049 33.29931641 -0.2487793 C34.34421234 -0.26628738 35.38910828 -0.28379547 36.46566772 -0.30183411 C43.6437762 -0.28027923 43.6437762 -0.28027923 46.99511719 1.92602539 C48.4687591 4.39548712 48.8525789 5.76161834 48.86962891 8.6184082 C48.87736328 9.86460937 48.87736328 9.86460937 48.88525391 11.13598633 C48.86978516 11.99514648 48.85431641 12.85430664 48.83837891 13.73950195 C48.85384766 14.6025293 48.86931641 15.46555664 48.88525391 16.35473633 C48.84734828 22.45280351 48.84734828 22.45280351 46.86962891 25.2668457 C44.33837891 26.17700195 44.33837891 26.17700195 35.33837891 26.17700195 C35.33837891 45.64700195 35.33837891 65.11700195 35.33837891 85.17700195 C37.64837891 85.17700195 39.95837891 85.17700195 42.33837891 85.17700195 C45.71337891 86.05200195 45.71337891 86.05200195 48.33837891 87.17700195 C50.02917111 90.55858636 49.60726949 94.33648007 49.65087891 98.05200195 C49.67988281 98.86797852 49.70888672 99.68395508 49.73876953 100.5246582 C49.74714844 101.31485352 49.75552734 102.10504883 49.76416016 102.91918945 C49.77874268 103.63961426 49.7933252 104.36003906 49.80834961 105.10229492 C49.12950201 108.09909849 47.67688639 109.23387417 45.33837891 111.17700195 C42.94139099 111.6782074 42.94139099 111.6782074 40.25024414 111.67871094 C39.23917099 111.68809189 38.22809784 111.69747284 37.18638611 111.70713806 C36.10087967 111.69590408 35.01537323 111.6846701 33.89697266 111.6730957 C32.77774918 111.67455093 31.6585257 111.67600616 30.50538635 111.67750549 C28.14085281 111.67584629 25.7763085 111.66428273 23.41186523 111.64355469 C19.78599369 111.61458277 16.16158216 111.62294958 12.53564453 111.63598633 C10.23941345 111.62974959 7.94318699 111.62135916 5.64697266 111.6105957 C4.55944199 111.61353134 3.47191132 111.61646698 2.35142517 111.61949158 C1.34350418 111.6068074 0.33558319 111.59412323 -0.70288086 111.58105469 C-2.03380516 111.57295021 -2.03380516 111.57295021 -3.39161682 111.56468201 C-6.11831402 111.09900618 -7.009822 110.35798415 -8.66162109 108.17700195 C-9.03393555 106.13989258 -9.03393555 106.13989258 -9.02490234 103.83325195 C-9.02425781 102.99922852 -9.02361328 102.16520508 -9.02294922 101.3059082 C-9.00683594 100.43836914 -8.99072266 99.57083008 -8.97412109 98.67700195 C-8.97734375 97.80946289 -8.98056641 96.94192383 -8.98388672 96.0480957 C-8.92888504 89.57789787 -8.92888504 89.57789787 -6.66162109 86.17700195 C-2.26409793 84.75427387 1.55889878 85.17700195 6.33837891 85.17700195 C6.33837891 65.70700195 6.33837891 46.23700195 6.33837891 26.17700195 C2.37837891 26.17700195 -1.58162109 26.17700195 -5.66162109 26.17700195 C-9.05489297 21.65263945 -9.08783849 19.03536568 -8.97412109 13.67700195 C-8.97734375 12.91774414 -8.98056641 12.15848633 -8.98388672 11.3762207 C-8.91572011 4.29928752 -8.91572011 4.29928752 -6.66162109 1.17700195 C-4.25134002 -0.02813858 -2.69269901 0.03104017 0 0 Z " fill="#18191B" transform="translate(509.66162109375,139.822998046875)"/>
<path d="M0 0 C2 3 2 3 2 5 C22.46 5 42.92 5 64 5 C59.61256004 7.19371998 56.78039428 8.12491622 51.96533203 8.14526367 C50.94061798 8.15164352 49.91590393 8.15802338 48.86013794 8.16459656 C47.75387054 8.16570938 46.64760315 8.1668222 45.5078125 8.16796875 C44.36972137 8.17129715 43.23163025 8.17462555 42.05905151 8.17805481 C39.64988611 8.18312072 37.24071369 8.18546324 34.83154297 8.18530273 C31.14669209 8.18748714 27.46214155 8.20564097 23.77734375 8.22460938 C21.43750102 8.22754377 19.09765688 8.22952826 16.7578125 8.23046875 C15.1044841 8.24124702 15.1044841 8.24124702 13.41775513 8.25224304 C12.38673676 8.24916641 11.35571838 8.24608978 10.29345703 8.24291992 C9.38983429 8.24434494 8.48621155 8.24576996 7.5552063 8.24723816 C4.69565988 7.97055248 2.56647926 7.28080949 0 6 C-0.875 4 -0.875 4 -1 2 C-0.67 1.34 -0.34 0.68 0 0 Z " fill="#090C0D" transform="translate(321,243)"/>
<path d="M0 0 C1.38137146 0.00212242 1.38137146 0.00212242 2.79064941 0.00428772 C5.70421734 0.00984218 8.61770568 0.022386 11.53125 0.03515625 C13.51822805 0.04017714 15.50520731 0.04473902 17.4921875 0.04882812 C22.33857188 0.05979665 27.18489749 0.07702942 32.03125 0.09765625 C32.03125 1.08765625 32.03125 2.07765625 32.03125 3.09765625 C15.53125 3.09765625 -0.96875 3.09765625 -17.96875 3.09765625 C-17.96875 2.43765625 -17.96875 1.77765625 -17.96875 1.09765625 C-11.93278819 0.21486629 -6.09499749 -0.03585334 0 0 Z " fill="#0E0F11" transform="translate(449.96875,247.90234375)"/>
<path d="M0 0 C9.9 0.33 19.8 0.66 30 1 C29.67 1.66 29.34 2.32 29 3 C23.52873499 4.41251613 17.86094771 4.14802715 12.25 4.125 C11.29222656 4.12886719 10.33445312 4.13273438 9.34765625 4.13671875 C8.43371094 4.13542969 7.51976562 4.13414062 6.578125 4.1328125 C5.74700195 4.13168457 4.91587891 4.13055664 4.05957031 4.12939453 C2 4 2 4 0 3 C0 2.01 0 1.02 0 0 Z " fill="#0B0C0E" transform="translate(502,247)"/>
<path d="M0 0 C0.33 0 0.66 0 1 0 C0.67 2.31 0.34 4.62 0 7 C1.25296875 7.04898438 2.5059375 7.09796875 3.796875 7.1484375 C5.44793821 7.22348583 7.09897881 7.29903277 8.75 7.375 C9.9875 7.42140625 9.9875 7.42140625 11.25 7.46875 C12.04921875 7.50742188 12.8484375 7.54609375 13.671875 7.5859375 C14.4050293 7.6173584 15.13818359 7.6487793 15.89355469 7.68115234 C18.24922918 8.03772523 19.93450591 8.83662883 22 10 C18.54168414 10.02894547 15.08339928 10.04678 11.625 10.0625 C10.14773437 10.07506836 10.14773437 10.07506836 8.640625 10.08789062 C7.22910156 10.09272461 7.22910156 10.09272461 5.7890625 10.09765625 C4.91975098 10.10289307 4.05043945 10.10812988 3.15478516 10.11352539 C1 10 1 10 -1 9 C-2.18154896 6.24305242 -2.04510094 5.13229609 -1.0625 2.25 C-0.711875 1.5075 -0.36125 0.765 0 0 Z " fill="#08080A" transform="translate(206,241)"/>
<path d="M0 0 C0.66 0 1.32 0 2 0 C1.6875 3.375 1.6875 3.375 1 7 C-2.79163027 9.52775351 -5.80874031 9.22443035 -10.1875 9.125 C-10.93708984 9.11597656 -11.68667969 9.10695312 -12.45898438 9.09765625 C-14.30612654 9.07412578 -16.15310412 9.03825561 -18 9 C-18 8.67 -18 8.34 -18 8 C-9.585 7.01 -9.585 7.01 -1 6 C-0.67 4.02 -0.34 2.04 0 0 Z " fill="#0A0B0C" transform="translate(557,242)"/>
<path d="M0 0 C3.3 0 6.6 0 10 0 C10 0.99 10 1.98 10 3 C7.03 3 4.06 3 1 3 C0.67 2.01 0.34 1.02 0 0 Z " fill="#0A0C0C" transform="translate(472,248)"/>
<path d="M0 0 C0.66 0 1.32 0 2 0 C2 2.64 2 5.28 2 8 C0.35 8.66 -1.3 9.32 -3 10 C-3.66 9.34 -4.32 8.68 -5 8 C-3.68 8 -2.36 8 -1 8 C-0.67 5.36 -0.34 2.72 0 0 Z " fill="#0F1012" transform="translate(193,167)"/>
</svg>
