<?xml version="1.0" standalone="no"?>
<!DOCTYPE svg PUBLIC "-//W3C//DTD SVG 20010904//EN"
 "http://www.w3.org/TR/2001/REC-SVG-20010904/DTD/svg10.dtd">
<svg version="1.0" xmlns="http://www.w3.org/2000/svg"
 width="225.000000pt" height="225.000000pt" viewBox="0 0 225.000000 225.000000"
 preserveAspectRatio="xMidYMid meet">

<g transform="translate(0.000000,225.000000) scale(0.100000,-0.100000)"
fill="#000000" stroke="none">
<path d="M2141 1326 c-15 -18 -3 -46 19 -46 10 0 21 7 24 16 6 16 -9 44 -24
44 -4 0 -13 -6 -19 -14z"/>
<path d="M2070 1285 c0 -8 7 -15 15 -15 8 0 15 7 15 15 0 8 -7 15 -15 15 -8 0
-15 -7 -15 -15z"/>
<path d="M434 1280 c-54 -22 -93 -105 -79 -169 21 -95 157 -139 240 -76 17 14
18 17 3 31 -14 14 -18 14 -46 0 -46 -24 -80 -20 -113 13 -39 39 -41 100 -4
136 32 33 89 37 131 10 22 -14 44 -4 44 21 0 32 -122 56 -176 34z"/>
<path d="M1390 1196 c0 -79 -3 -97 -21 -120 -13 -17 -30 -26 -49 -26 -50 0
-70 39 -70 134 l-1 81 -24 -59 c-40 -96 -28 -158 39 -190 42 -20 67 -20 111
-2 51 22 65 58 65 176 l0 100 -25 0 c-25 0 -25 0 -25 -94z"/>
<path d="M1521 1271 c-18 -14 -25 -29 -25 -55 0 -45 24 -71 77 -85 60 -15 85
-35 71 -58 -16 -26 -59 -28 -99 -4 l-35 20 -11 -21 c-10 -18 -8 -24 7 -35 55
-40 161 -36 184 7 15 28 12 86 -5 100 -9 7 -39 21 -67 30 -60 19 -79 40 -58
65 10 12 23 15 49 11 68 -12 75 -11 79 5 7 38 -123 54 -167 20z"/>
<path d="M1930 1258 c-19 -31 -19 -33 -2 -63 15 -24 26 -31 57 -33 36 -3 42 0
58 31 18 32 18 34 0 65 -15 27 -24 32 -56 32 -31 0 -40 -5 -57 -32z"/>
<path d="M145 1173 c-85 -192 -80 -173 -47 -173 22 0 32 7 45 35 17 35 17 35
81 35 l65 0 12 -35 c11 -29 18 -35 41 -35 15 0 28 3 27 8 0 4 -26 66 -58 137
-54 123 -59 130 -87 133 -30 3 -32 0 -79 -105z m82 -61 c-21 -2 -41 -1 -44 2
-3 2 5 26 17 53 l22 48 22 -50 22 -50 -39 -3z"/>
<path d="M630 1260 c0 -17 7 -20 40 -20 l40 0 0 -120 0 -120 30 0 30 0 0 120
0 120 40 0 c33 0 40 3 40 20 0 19 -7 20 -110 20 -103 0 -110 -1 -110 -20z"/>
<path d="M880 1140 l0 -140 25 0 25 0 0 140 0 140 -25 0 -25 0 0 -140z"/>
<path d="M975 1262 c3 -11 27 -73 54 -138 42 -101 53 -119 74 -122 21 -3 27 5
55 75 17 43 42 106 56 141 l25 62 -29 0 c-26 0 -31 -6 -66 -95 -43 -109 -40
-110 -91 23 -25 66 -30 72 -56 72 -23 0 -27 -3 -22 -18z"/>
<path d="M2110 1225 c-10 -12 -10 -21 -2 -40 14 -31 56 -34 72 -5 24 44 -38
83 -70 45z"/>
<path d="M1736 1204 c-8 -21 1 -34 24 -34 10 0 21 4 24 9 10 16 -5 41 -24 41
-10 0 -21 -7 -24 -16z"/>
<path d="M1808 1188 c-14 -30 -14 -36 0 -66 15 -30 20 -33 56 -30 32 2 43 9
58 33 17 30 17 32 -2 63 -17 27 -26 32 -58 32 -33 0 -40 -4 -54 -32z"/>
<path d="M1930 1118 c-19 -32 -19 -33 0 -63 16 -25 26 -30 57 -30 31 0 40 5
55 31 18 30 18 33 1 63 -15 26 -24 31 -56 31 -31 0 -40 -5 -57 -32z"/>
<path d="M1807 1049 c-17 -30 -17 -33 1 -63 14 -24 26 -32 55 -34 32 -3 39 1
56 29 18 30 18 34 3 65 -14 30 -20 34 -56 34 -35 0 -43 -4 -59 -31z"/>
<path d="M1928 977 c-15 -32 -15 -36 4 -66 18 -28 25 -32 56 -29 28 2 40 10
55 35 18 31 18 33 1 63 -16 26 -24 30 -59 30 -37 0 -43 -4 -57 -33z"/>
<path d="M905 965 c-62 -61 13 -152 99 -119 22 8 22 74 1 74 -9 0 -15 -9 -15
-25 0 -21 -5 -25 -30 -25 -20 0 -33 7 -41 21 -23 44 26 93 70 70 24 -13 42 6
20 20 -28 17 -79 10 -104 -16z"/>
<path d="M1060 915 c0 -60 3 -75 15 -75 8 0 15 9 15 20 0 13 7 20 20 20 10 0
24 -9 30 -20 6 -11 20 -20 32 -20 20 0 20 1 4 19 -17 18 -17 22 -2 43 21 30
20 44 -4 68 -14 14 -33 20 -65 20 l-45 0 0 -75z m93 33 c8 -24 -5 -38 -34 -38
-24 0 -29 4 -29 25 0 21 5 25 29 25 16 0 31 -6 34 -12z"/>
<path d="M1233 964 c-60 -60 17 -150 102 -118 24 10 46 60 39 89 -14 57 -96
74 -141 29z m105 -43 c4 -28 -14 -51 -42 -51 -30 0 -46 18 -46 52 0 55 80 54
88 -1z"/>
<path d="M1400 935 c0 -64 22 -95 68 -95 49 0 65 21 70 89 4 55 2 61 -15 61
-16 0 -18 -6 -15 -39 5 -47 -12 -81 -38 -81 -25 0 -40 29 -40 79 0 30 -4 41
-15 41 -12 0 -15 -13 -15 -55z"/>
<path d="M1580 915 c0 -60 3 -75 15 -75 8 0 15 9 15 20 0 15 7 20 26 20 43 0
64 17 64 54 0 38 -28 56 -85 56 l-35 0 0 -75z m85 20 c0 -14 -8 -21 -27 -23
-24 -3 -28 0 -28 23 0 23 4 26 28 23 19 -2 27 -9 27 -23z"/>
<path d="M1790 905 c-20 -24 3 -65 35 -65 32 0 55 41 35 65 -7 8 -23 15 -35
15 -12 0 -28 -7 -35 -15z"/>
</g>
</svg>
