<?xml version="1.0" standalone="no"?>
<!DOCTYPE svg PUBLIC "-//W3C//DTD SVG 20010904//EN"
 "http://www.w3.org/TR/2001/REC-SVG-20010904/DTD/svg10.dtd">
<svg version="1.0" xmlns="http://www.w3.org/2000/svg"
 width="941.000000pt" height="289.000000pt" viewBox="0 0 941.000000 289.000000"
 preserveAspectRatio="xMidYMid meet">

<g transform="translate(0.000000,289.000000) scale(0.100000,-0.100000)"
fill="#000000" stroke="none">
<path d="M920 2465 c-258 -52 -485 -232 -605 -480 -66 -138 -80 -203 -79 -385
1 -139 3 -164 27 -243 93 -305 333 -536 630 -607 73 -18 118 -20 406 -20 l324
0 -5 49 c-11 108 -101 230 -206 279 -52 24 -71 26 -237 32 -202 8 -251 20
-349 84 -145 97 -227 249 -228 427 -1 150 45 261 153 369 159 159 401 195 601
88 114 -60 230 -209 257 -329 6 -24 11 -178 11 -345 0 -325 7 -392 48 -468 57
-105 147 -169 261 -184 l62 -9 -3 516 c-4 486 -5 520 -25 591 -91 326 -364
579 -688 639 -78 15 -274 12 -355 -4z"/>
<path d="M5611 2384 c-117 -59 -142 -187 -55 -284 49 -54 104 -73 198 -68 63
3 81 8 117 33 69 49 84 76 84 155 0 61 -3 72 -31 106 -48 59 -103 84 -189 84
-57 0 -82 -5 -124 -26z"/>
<path d="M8020 2378 c-137 -84 -129 -253 16 -324 47 -23 63 -26 133 -23 69 4
85 8 123 34 82 58 110 153 69 233 -38 75 -108 112 -214 112 -65 0 -79 -4 -127
-32z"/>
<path d="M4868 2090 l-3 -291 -35 26 c-108 81 -250 125 -404 125 -125 0 -219
-20 -311 -64 -172 -82 -284 -208 -336 -376 -30 -97 -33 -264 -5 -355 124 -416
673 -597 1043 -344 23 16 44 29 47 29 3 0 6 -25 6 -55 l0 -55 180 0 180 0 0
825 0 825 -180 0 -180 0 -2 -290z m-298 -421 c131 -21 236 -93 287 -198 24
-49 28 -67 28 -146 -1 -118 -25 -174 -106 -249 -84 -78 -146 -100 -279 -100
-86 0 -116 4 -162 23 -76 30 -159 106 -195 179 -24 50 -28 69 -28 147 0 78 4
97 28 146 60 123 169 187 352 208 6 0 39 -4 75 -10z"/>
<path d="M3058 2143 l-3 -218 -92 -3 -93 -3 0 -129 0 -130 95 0 95 0 0 -465 0
-465 175 0 175 0 0 465 0 464 108 3 107 3 3 127 3 127 -108 3 -108 3 -3 218
-2 217 -175 0 -175 0 -2 -217z"/>
<path d="M8698 2143 l-3 -218 -93 -3 -93 -3 3 -127 3 -127 93 -3 92 -3 0 -464
0 -465 175 0 175 0 0 465 0 464 108 3 107 3 3 127 3 127 -108 3 -108 3 -3 218
-2 217 -175 0 -175 0 -2 -217z"/>
<path d="M2573 1936 c-60 -19 -107 -51 -153 -103 l-40 -46 0 67 0 66 -155 0
-155 0 0 -595 0 -595 174 0 174 0 5 358 c6 433 15 485 101 560 44 38 92 48
152 32 24 -7 46 -11 49 -9 8 9 105 233 105 244 0 32 -176 46 -257 21z"/>
<path d="M6652 1931 c-206 -51 -388 -209 -446 -386 -41 -127 -39 -303 5 -420
28 -76 111 -188 177 -241 78 -62 202 -121 292 -140 54 -11 112 -15 210 -12
157 5 237 28 339 96 l61 40 0 -38 c0 -116 -47 -198 -139 -245 -75 -37 -146
-48 -282 -43 -134 5 -203 24 -269 73 -33 25 -36 25 -233 25 l-198 0 33 -62
c70 -134 215 -239 403 -290 70 -19 106 -22 295 -22 194 -1 223 1 300 22 215
59 353 173 408 338 37 109 42 197 42 755 l0 539 -180 0 -180 0 0 -60 c0 -33
-3 -60 -6 -60 -3 0 -20 11 -37 24 -54 41 -152 85 -233 106 -99 26 -259 26
-362 1z m440 -290 c76 -30 158 -105 189 -173 33 -74 33 -192 1 -263 -31 -68
-102 -138 -176 -172 -56 -26 -70 -28 -181 -28 -114 0 -123 2 -186 31 -86 41
-142 92 -176 162 -38 76 -40 191 -5 267 40 88 116 152 220 186 80 26 234 21
314 -10z"/>
<path d="M5550 1325 l0 -595 180 0 180 0 0 595 0 595 -180 0 -180 0 0 -595z"/>
<path d="M7970 1325 l0 -595 180 0 180 0 0 595 0 595 -180 0 -180 0 0 -595z"/>
</g>
</svg>
