<?xml version="1.0" standalone="no"?>
<!DOCTYPE svg PUBLIC "-//W3C//DTD SVG 20010904//EN"
 "http://www.w3.org/TR/2001/REC-SVG-20010904/DTD/svg10.dtd">
<svg version="1.0" xmlns="http://www.w3.org/2000/svg"
 width="408.000000pt" height="350.000000pt" viewBox="0 0 408.000000 350.000000"
 preserveAspectRatio="xMidYMid meet">

<g transform="translate(0.000000,350.000000) scale(0.100000,-0.100000)"
fill="#000000" stroke="none">
<path d="M450 2567 l-45 -22 0 -685 0 -685 78 0 c76 0 80 1 103 30 l24 30 0
652 0 651 -31 26 c-37 31 -70 32 -129 3z"/>
<path d="M992 1951 c-163 -56 -248 -276 -198 -512 26 -119 88 -209 174 -250
90 -44 238 -25 312 41 l25 22 3 -191 2 -191 60 0 60 0 0 540 0 540 -55 0 -55
0 0 -35 c0 -19 -4 -35 -9 -35 -4 0 -25 14 -46 30 -73 58 -178 74 -273 41z
m236 -113 c19 -11 45 -32 58 -47 24 -25 24 -28 24 -223 l0 -197 -31 -35 c-43
-50 -82 -66 -156 -66 -90 0 -145 35 -188 119 -41 81 -39 276 4 358 57 112 189
153 289 91z"/>
<path d="M1900 1957 c-19 -6 -51 -28 -72 -49 -21 -21 -40 -38 -43 -38 -3 0 -5
18 -5 40 l0 40 -60 0 -60 0 0 -385 0 -385 60 0 60 0 0 279 c0 272 0 279 23
312 31 47 98 78 170 79 l58 0 -3 58 -3 57 -45 2 c-25 1 -61 -4 -80 -10z"/>
<path d="M2328 1955 c-90 -24 -166 -89 -192 -163 l-15 -42 64 0 c61 0 65 1 71
26 9 37 75 81 133 89 58 8 127 -9 158 -37 31 -29 55 -97 51 -144 l-3 -39 -135
-6 c-142 -7 -179 -14 -235 -49 -82 -51 -122 -131 -112 -226 8 -83 52 -140 135
-177 95 -42 250 -18 313 49 12 13 26 24 29 24 4 0 10 -18 14 -40 l6 -40 66 0
c64 0 66 1 59 23 -4 12 -11 148 -14 302 -6 272 -7 281 -31 329 -56 109 -213
162 -362 121z m270 -485 c2 -82 1 -86 -27 -121 -42 -51 -107 -79 -181 -79 -72
0 -113 18 -140 63 -35 57 -22 132 30 175 43 36 112 50 230 48 l85 -1 3 -85z"/>
<path d="M3150 1959 c-46 -13 -78 -28 -118 -57 -44 -32 -92 -99 -92 -129 0
-21 4 -23 58 -23 54 0 58 2 71 31 42 96 227 117 300 34 22 -25 31 -49 36 -89
11 -86 12 -86 -110 -86 -154 0 -232 -22 -302 -83 -47 -41 -73 -99 -73 -163 0
-132 102 -226 250 -228 79 -1 126 15 186 60 24 19 46 34 48 34 2 0 7 -18 11
-40 l7 -40 65 0 c63 0 65 1 58 23 -5 12 -11 148 -14 302 -7 289 -10 307 -53
366 -59 79 -210 120 -328 88z m255 -496 c0 -88 -1 -93 -29 -122 -45 -47 -106
-71 -178 -71 -76 0 -122 24 -144 75 -19 46 -18 79 6 124 32 65 108 90 260 87
l85 -1 0 -92z"/>
</g>
</svg>
